<svg
  id="Capa_1"
  enable-background="new 0 0 512 512"
  height="60"
  viewBox="0 0 512 512"
  width="60"
  xmlns="http://www.w3.org/2000/svg"
>
  <g>
    <path
      d="m283.165 158.124 84.853-63.639 49.497 49.497-63.639 84.853z"
      fill="#fff5f5"
    ></path>
    <path
      d="m353.876 228.835 63.639-84.853-24.749-24.748-74.245 74.245z"
      fill="#e1ebf0"
    ></path>
    <path
      d="m22.949 489.051c-1.517-1.517-2.709-3.36-3.468-5.421-20.882-56.676-25.07-117.817-12.112-176.811 12.957-58.994 42.381-112.752 85.091-155.461l34.977-34.977c5.858-5.858 15.355-5.858 21.213 0 25.577 25.577 67.195 25.578 92.772 0 5.858-5.858 15.355-5.858 21.213 0l132.984 132.984c5.858 5.858 5.858 15.355 0 21.213-25.577 25.577-25.577 67.195.001 92.773 2.813 2.813 4.394 6.628 4.393 10.607 0 3.979-1.58 7.793-4.393 10.607l-34.977 34.977c-42.71 42.71-96.467 72.134-155.461 85.091-58.995 12.958-120.135 8.769-176.811-12.112-2.062-.761-3.904-1.953-5.422-3.47z"
      fill="#44ffe8"
    ></path>
    <path
      d="m28.37 492.519c56.676 20.881 117.817 25.07 176.811 12.112 58.994-12.957 112.751-42.381 155.461-85.091l34.977-34.977c2.813-2.813 4.393-6.628 4.393-10.607s-1.58-7.794-4.393-10.607c-25.578-25.578-25.578-67.195-.001-92.773 5.858-5.858 5.858-15.355 0-21.213l-66.492-66.492-306.177 306.18c1.518 1.517 3.36 2.709 5.421 3.468z"
      fill="#00b4bc"
    ></path>
    <path
      d="m138.874 147.37-25.201 25.201c-76.852 76.852-103.311 191.595-68.369 294.125 102.53 34.942 217.273 8.483 294.125-68.369l25.201-25.201c-24.238-33.355-24.238-78.97 0-112.324l-113.432-113.432c-33.354 24.238-78.97 24.238-112.324 0z"
      fill="#00b4bc"
    ></path>
    <path
      d="m339.429 398.327 25.201-25.201c-24.238-33.355-24.238-78.97 0-112.324l-56.716-56.716-262.61 262.61c102.53 34.942 217.273 8.483 294.125-68.369z"
      fill="#0a617d"
    ></path>
    <path
      d="m417.515 143.982 84.234-84.234c13.668-13.668 13.668-35.829 0-49.497-13.668-13.668-35.829-13.668-49.497 0l-84.234 84.234z"
      fill="#0a789b"
    ></path>
    <path
      d="m392.766 119.234 24.749 24.749 84.234-84.234c13.668-13.668 13.668-35.829 0-49.497z"
      fill="#08475e"
    ></path>
    <g>
      <path
        d="m424.586 172.266-84.853-84.853c-5.858-5.858-5.858-15.355 0-21.213s15.355-5.858 21.213 0l84.853 84.853c5.858 5.858 5.858 15.355 0 21.213-5.857 5.858-15.355 5.858-21.213 0z"
        fill="#ffda44"
      ></path>
    </g>
    <path
      d="m424.586 172.266c5.858 5.858 15.355 5.858 21.213 0s5.858-15.355 0-21.213l-42.426-42.426-21.213 21.213z"
      fill="#ff9f22"
    ></path>
    <g>
      <path
        d="m164.522 408.054-14.365-46.211-46.211-14.365c-11.872-3.69-14.359-19.392-4.208-26.571l39.51-27.942-.618-48.388c-.159-12.431 14.006-19.649 23.97-12.213l38.783 28.942 45.829-15.541c11.774-3.993 23.015 7.249 19.023 19.023l-15.541 45.829 28.942 38.783c7.436 9.964.218 24.129-12.213 23.97l-48.388-.618-27.941 39.51c-7.179 10.151-22.881 7.664-26.572-4.208z"
        fill="#ffda44"
      ></path>
    </g>
    <path
      d="m150.157 361.843 14.365 46.211c3.69 11.872 19.392 14.359 26.571 4.208l27.941-39.51 48.388.618c12.431.159 19.649-14.006 12.213-23.97l-28.942-38.783 15.541-45.829c1.996-5.887.184-11.641-3.599-15.424z"
      fill="#ff9f22"
    ></path>
  </g>
</svg>
