<svg
  height="60"
  viewBox="0 0 58 58"
  width="60"
  xmlns="http://www.w3.org/2000/svg"
>
  <g id="001---Game-Development" fill="none">
    <path id="Rectangle" d="m16 45h17v6h-17z" fill="#bbc1ce"></path>
    <path
      id="Path"
      d="m22 46h-19c-1.65685425 0-3-1.3431458-3-3v-40c0-1.65685425 1.34314575-3 3-3h44c1.6568542 0 3 1.34314575 3 3v43z"
      fill="#2885ee"
    ></path>
    <path
      id="Path"
      d="m50 38v8h-47c-1.65685425 0-3-1.3431458-3-3v-5z"
      fill="#d8dde5"
    ></path>
    <path
      id="Path"
      d="m33.46 50 6.54 4-1 1h-28l-1-1 6-4z"
      fill="#d8dde5"
    ></path>
    <path
      id="Path"
      d="m31.23 54h8.77v3c0 .5522847-.4477153 1-1 1h-28c-.5522847 0-1-.4477153-1-1v-3z"
      fill="#bbc1ce"
    ></path>
    <path
      id="Path"
      d="m58 40.1v13.49c-.0003281 2.0074666-1.3563993 3.7613991-3.2991332 4.2670744-1.9427338.5056753-3.9818418-.3645241-4.9608668-2.1170744l-3.74-6.71c-.3504472-.6381421-1.0219704-1.0333814-1.75-1.03h-8.5c-.7280296-.0033814-1.3995528.3918579-1.75 1.03l-3.74 6.71c-.9779713 1.7542562-3.0179374 2.6258737-4.961616 2.1199525-1.9436786-.5059211-3.2998076-2.2615101-3.298384-4.2699525v-13.59c.0962819-4.3507593 3.5802549-7.8654861 7.93-8 2.4537295-.0279749 4.7827325 1.0793166 6.31 3h7.52c1.5272675-1.9206834 3.8562705-3.0279749 6.31-3 4.3880079.1360423 7.8870485 3.7100939 7.93 8.1z"
      fill="#295474"
    ></path>
    <path
      id="Path"
      d="m50 39c-.5522847 0-1-.4477153-1-1v-1c0-.5522847.4477153-1 1-1s1 .4477153 1 1v1c0 .5522847-.4477153 1-1 1z"
      fill="#abde62"
    ></path>
    <path
      id="Path"
      d="m48 41h-1c-.5522847 0-1-.4477153-1-1s.4477153-1 1-1h1c.5522847 0 1 .4477153 1 1s-.4477153 1-1 1z"
      fill="#f289ca"
    ></path>
    <path
      id="Path"
      d="m50 44c-.5522847 0-1-.4477153-1-1v-1c0-.5522847.4477153-1 1-1s1 .4477153 1 1v1c0 .5522847-.4477153 1-1 1z"
      fill="#2885ee"
    ></path>
    <path
      id="Path"
      d="m53 41h-1c-.5522847 0-1-.4477153-1-1s.4477153-1 1-1h1c.5522847 0 1 .4477153 1 1s-.4477153 1-1 1z"
      fill="#ee3a48"
    ></path>
    <path
      id="Path"
      d="m33 39h-2v-2c0-.5522847-.4477153-1-1-1s-1 .4477153-1 1v2h-2c-.5522847 0-1 .4477153-1 1s.4477153 1 1 1h2v2c0 .5522847.4477153 1 1 1s1-.4477153 1-1v-2h2c.5522847 0 1-.4477153 1-1s-.4477153-1-1-1z"
      fill="#4d8aab"
    ></path>
    <path
      id="Path"
      d="m38 43h-1c-.5522847 0-1 .4477153-1 1s.4477153 1 1 1h1c.5522847 0 1-.4477153 1-1s-.4477153-1-1-1z"
      fill="#4d8aab"
    ></path>
    <path
      id="Path"
      d="m43 43h-1c-.5522847 0-1 .4477153-1 1s.4477153 1 1 1h1c.5522847 0 1-.4477153 1-1s-.4477153-1-1-1z"
      fill="#4d8aab"
    ></path>
    <g fill="#21475e">
      <path
        id="Path"
        d="m38.99 38.6c-.0819613.0192494-.1658114.0293114-.25.03-.4566512.0008009-.8558377-.3078485-.97-.75-.27364-1.0680404-.7981626-2.055377-1.53-2.88h2.46c.450311.7401515.7905411 1.5418818 1.01 2.38.1320871.5348547-.1879305 1.0771066-.72 1.22z"
      ></path>
      <path
        id="Path"
        d="m25.87 47.43c-.1821561.3077983-.5123484.497564-.87.5-.1766074.0019714-.3500951-.0466051-.5-.14-.9591147-.5517266-1.8069384-1.2774637-2.5-2.14v-5.65c.0026298 2.499584 1.3362221 4.8086039 3.5 6.06.4774157.2785014.6423004.8890205.37 1.37z"
      ></path>
      <path
        id="Path"
        d="m43.76 35c-.7318374.824623-1.25636 1.8119596-1.53 2.88-.1141623.4421515-.5133488.7508009-.97.75-.0841886-.0006886-.1680387-.0107506-.25-.03-.5320695-.1428934-.8520871-.6851453-.72-1.22.2194589-.8381182.559689-1.6398485 1.01-2.38z"
      ></path>
      <path
        id="Path"
        d="m58 40.1v5.55c-.6930616.8625363-1.5408853 1.5882734-2.5 2.14-.1499049.0933949-.3233926.1419714-.5.14-.4553929.0031839-.8554212-.3017208-.9730546-.7416699-.1176335-.4399491.0768419-.903812.4730546-1.1283301 2.1314624-1.2350752 3.4597083-3.4968883 3.5-5.96z"
      ></path>
    </g>
    <path
      id="Path"
      d="m18 27c-.2651948-.0000566-.5195073-.1054506-.707-.293l-8-8c-.39038194-.3904999-.39038194-1.0235001 0-1.414l8-8c.3923789-.37897221 1.0160848-.37355237 1.4018186.01218142.3857338.3857338.3911536 1.00943968.0121814 1.40181858l-7.293 7.293 7.293 7.293c.2859079.2859943.3714219.7160366.216678 1.0896546-.1547439.3736179-.5192821.6172591-.923678.6173454z"
      fill="#abde62"
    ></path>
    <path
      id="Path"
      d="m32 27c-.4043959-.0000863-.7689341-.2437275-.923678-.6173454-.1547439-.373618-.0692299-.8036603.216678-1.0896546l7.293-7.293-7.293-7.293c-.3789722-.3923789-.3735524-1.01608478.0121814-1.40181858.3857338-.38573379 1.0094397-.39115363 1.4018186-.01218142l8 8c.3903819.3904999.3903819 1.0235001 0 1.414l-8 8c-.1874927.1875494-.4418052.2929434-.707.293z"
      fill="#abde62"
    ></path>
    <path
      id="Path"
      d="m22 27c-.1197749-.0004117-.2385583-.0217318-.351-.063-.2486069-.0929623-.4500582-.2809448-.5599743-.522535-.109916-.2415902-.1192788-.5169671-.0260257-.765465l6-16c.1250429-.33475787.4191786-.57737727.7716089-.63646583.3524303-.05908855.7096127.0743307.937.35000001s.2904341.65170792.1653911.98646582l-6 16c-.1457526.3913699-.5193707.6509487-.937.651z"
      fill="#abde62"
    ></path>
  </g>
</svg>
